<svg height="512" viewBox="0 0 58 58" width="512" xmlns="http://www.w3.org/2000/svg"><g id="Page-1" fill="none" fill-rule="evenodd"><g id="015---Tomato" fill-rule="nonzero" transform="translate(0 -1)"><path id="Shape" d="m45.19 37c.4144264-1.6400359.6854473-3.3130046.81-5 .3725474-5.4528435-1.5612531-10.8116114-5.33-14.77.2110151-.0980838.3111603-.3419155.23-.56-.35-1.26-1.7-2.54-4.79-3.67-.49-.18-.96-.34-1.41-.48 2.0169133-1.7883702 3.6762492-3.94313151 4.89-6.35.08939-.18808328.0559579-.41156946-.0845592-.56526012-.1405172-.15369065-.3601211-.20696259-.5554408-.13473988-2.69 1.06-9.5 3.44-14.21 2.46.1593276-1.49360978.5366696-2.9558103 1.12-4.34.02-.05.05-.11.07-.16.0483037-.13813591.0719963-.28367572.07-.43 0-1.1-1.34-2-3-2-1.1736344-.1067858-2.3034076.47368392-2.9 1.49-.0177072.03492521-.0311375.07185856-.04.11-.7970635 1.74902208-1.2389393 3.63889094-1.3 5.56-4.35-.04-9.39-1.81-11.61-2.69-.19465643-.07172837-.4133727-.01763275-.55215038.13656466-.13877767.15419742-.16961525.37738385-.07784962.56343534 1.20744939 2.41354391 2.87150244 4.5700208 4.9 6.35-.45.14-.92.3-1.42.48-3.09 1.13-4.44 2.41-4.79 3.67-.0781361.199322.00302471.4257179.19.53-3.77713068 3.9659313-5.71472226 9.3360353-5.34 14.8.94 12.23 8.08 19.14 20.58 19.92z" fill="#e64c3c"/><path id="Shape" d="m57.95 41.2c-.89 11.55-7.99 17.78-20.42 17.8h-.06c-7.75-.01-13.43-2.44-16.83-7.08-2.1760857-3.1670628-3.4198922-6.8811592-3.59-10.72-.0614149-.7685524-.0680984-1.5404994-.02-2.31.0609125-1.0602545.9379976-1.8890999 2-1.89h36.94c1.0652548.0022005 1.9432098.8362577 2 1.9.0430939.7662921.0364132 1.5345732-.02 2.3z" fill="#e64c3c"/><path id="Shape" d="m48.168 41c1.5792725.0024831 3.0468624.8149432 3.8873032 2.1520173.8404407 1.3370741.93622 3.0118093.2536968 4.4359827-2.393 4.96-7.279 7.4-14.779 7.412h-.06c-7.492-.015-12.381-2.451-14.776-7.41-.6833772-1.424193-.5881815-3.0994183.2521367-4.4370264.8403183-1.337608 2.3082039-2.1504759 3.8878633-2.1529736 1.562126.0350458 3.008742.8305913 3.875 2.131 1.206 1.695 3.791 2.869 6.791 2.869s5.585-1.174 6.786-2.869c.866258-1.3004087 2.312874-2.0959542 3.875-2.131z" fill="#fb7b76"/><path id="Shape" d="m13.8 47.534c-.1217191.000117-.242412-.0222587-.356-.066-5.245-2-8.559-6.016-9.853-11.941-.08594107-.5246661.25368251-1.0248551.7730472-1.1385244.51936469-.1136692 1.03687584.1989255 1.1779528.7115244 1.157 5.3 3.973 8.731 8.611 10.5.4516133.1712967.7162451.6409077.6288484 1.1159434-.0873968.4750357-.5018404.8197109-.9848484.8190566z" fill="#fff"/><path id="Shape" d="m37.23 26.25c.0208836.2177804-.1022446.4238472-.3039226.5086436-.2016779.0847965-.4350642.0286278-.5760774-.1386436-2.31-2.81-4.6-3.28-9.57-5.76-.9908475-.4782033-1.9152719-1.083281-2.75-1.8-.6517097-.5663926-1.0271669-1.3865661-1.03-2.25-.0025759-1.4521407 1.0032232-2.7114677 2.42-3.03h.01c.216511-.0490301.4380211-.0725236.66-.07h.09c1.83.05 4.25.93 6.88 4.03.3.33.58.69.87 1.07 1.7426906 2.142018 2.8819165 4.7104547 3.3 7.44z" fill="#4fba6f"/><path id="Shape" d="m19.06 11.96c-1.05-.65-3.21-.88-7.64.56-2.02849756-1.7799792-3.69255061-3.93645609-4.9-6.35-.09176563-.18605149-.06092805-.40923792.07784962-.56343534.13877768-.15419741.35749395-.20829303.55215038-.13656466 2.22.88 7.26 2.65 11.61 2.69-.0497217 1.27405555.0509736 2.5495298.3 3.8z" fill="#4fba6f"/><path id="Shape" d="m40.67 17.23c-.1072914.0451376-.2251625.0590048-.34.04-2.4314498-.2976863-4.8971204-.1382825-7.27.47-2.63-3.1-5.05-3.98-6.88-4.03h-.09c-.01-.96.6-3.79 8.6-1.19h.01c.45.14.92.3 1.41.48 3.09 1.13 4.44 2.41 4.79 3.67.0811603.2180845-.0189849.4619162-.23.56z" fill="#4c8056"/><path id="Shape" d="m39.59 6.17c-1.2137508 2.40686849-2.8730867 4.5616298-4.89 6.35h-.01c-8-2.6-8.61.23-8.6 1.19-.2219789-.0025236-.443489.0209699-.66.07h-.01c-.6878901-1.8683599-.9209858-3.87366823-.68-5.85 4.71.98 11.52-1.4 14.21-2.46.1953197-.07222271.4149236-.01895077.5554408.13473988.1405171.15369066.1739492.37717684.0845592.56526012z" fill="#4fba6f"/><path id="Shape" d="m26 3c.0019963.14632428-.0216963.29186409-.07.43-.02.05-.05.11-.07.16-.6172302.96496653-1.7187164 1.50800693-2.86 1.41-1.66 0-3-.9-3-2-.0004163-.13560569.0198156-.27048441.06-.4.0088625-.03814144.0222928-.07507479.04-.11.5965924-1.01631608 1.7263656-1.5967858 2.9-1.49 1.66 0 3 .9 3 2z" fill="#4c8056"/><path id="Shape" d="m23 16.81c-.0028331.8634339-.3782903 1.6836074-1.03 2.25-.8368152.7187961-1.7648261 1.3240206-2.76 1.8-4.96 2.48-7.25 2.95-9.57 5.76-.14101322.1672714-.37439947.2234401-.57607744.1386436-.20167797-.0847964-.32480611-.2908632-.30392256-.5086436.427176-2.728722 1.5692042-5.2956976 3.31-7.44.3-.39.59-.76.89-1.1 2.63-3.07 5.03-3.95 6.86-4 .0668257-.0019152.1336986.0014284.2.01 1.6675974.0499303 2.9905228 1.4216884 2.98 3.09z" fill="#4fba6f"/><path id="Shape" d="m20.02 13.72c-.0663014-.0085716-.1331743-.0119152-.2-.01-1.83.05-4.23.93-6.86 4-2.3459571-.586657-4.77996377-.7358162-7.18-.44-.13094324.0207033-.26502902-.0039967-.38-.07-.18697529-.1042821-.2681361-.330678-.19-.53.35-1.26 1.7-2.54 4.79-3.67.5-.18.97-.34 1.42-.48 4.43-1.44 6.59-1.21 7.64-.56.6154667.3691876.9828146 1.0426589.96 1.76z" fill="#4c8056"/><path id="Shape" d="m25.42 13.78c-1.4167768.3185323-2.4225759 1.5778593-2.42 3.03.0105228-1.6683116-1.3124026-3.0400697-2.98-3.09.0228146-.7173411-.3445333-1.3908124-.96-1.76-.2490264-1.2504702-.3497217-2.52594445-.3-3.8.0610607-1.92110906.5029365-3.81097792 1.3-5.56-.0401844.12951559-.0604163.26439431-.06.4 0 1.1 1.34 2 3 2 1.1412836.09800693 2.2427698-.44503347 2.86-1.41-.5833304 1.3841897-.9606724 2.84639022-1.12 4.34-.2409858 1.97633177-.0078901 3.9816401.68 5.85z" fill="#24ae5f"/><circle id="Oval" cx="4" cy="32" fill="#fff" r="1"/><g fill="#f3d55b"><path id="Shape" d="m26 48c-.4043959-.0000863-.7689341-.2437275-.923678-.6173454-.1547439-.373618-.0692299-.8036603.216678-1.0896546l2-2c.3923789-.3789722 1.0160848-.3735524 1.4018186.0121814s.3911536 1.0094397.0121814 1.4018186l-2 2c-.1874927.1875494-.4418052.2929434-.707.293z"/><path id="Shape" d="m30 51c-.3464401-.000185-.6681037-.1796678-.8501945-.4743943-.1820909-.2947265-.1986643-.6627032-.0438055-.9726057l1-2c.2468713-.4942949.8477051-.6948713 1.342-.448s.6948713.8477051.448 1.342l-1 2c-.1695854.3393743-.5166139.553556-.896.553z"/><path id="Shape" d="m49 48c-.2651948-.0000566-.5195073-.1054506-.707-.293l-2-2c-.3789722-.3923789-.3735524-1.0160848.0121814-1.4018186s1.0094397-.3911536 1.4018186-.0121814l2 2c.2859079.2859943.3714219.7160366.216678 1.0896546-.1547439.3736179-.5192821.6172591-.923678.6173454z"/><path id="Shape" d="m45 51c-.3808256.0020788-.7297741-.2123306-.9-.553l-1-2c-.2468713-.4942949-.0462949-1.0951287.448-1.342s1.0951287-.0462949 1.342.448l1 2c.1545455.3092668.1383796.6764236-.0427493.9709106-.1811288.294487-.5015228.4745236-.8472507.4760894z"/><path id="Shape" d="m35 52c-.5522847 0-1-.4477153-1-1v-2c0-.5522847.4477153-1 1-1s1 .4477153 1 1v2c0 .5522847-.4477153 1-1 1z"/><path id="Shape" d="m40 52c-.5522847 0-1-.4477153-1-1v-2c0-.5522847.4477153-1 1-1s1 .4477153 1 1v2c0 .5522847-.4477153 1-1 1z"/></g><path id="Shape" d="m17.03 38.89c-.0480984.7695006-.0414149 1.5414476.02 2.31.1701078 3.8388408 1.4139143 7.5529372 3.59 10.72-.88-.06-1.74-.14-2.56-.26-1.7889152-3.1539008-2.8226212-6.6794546-3.02-10.3-.069364-.8683045-.0793873-1.7403306-.03-2.61.1355684-2.1093559 1.8862922-3.7506595 4-3.75l26.59-.0000002c-.12.6900002-.26 1.3500002-.43 2.0000002h-26.16c-1.0620024.0009001-1.9390875.8297455-2 1.89z" fill="#c03a2b"/></g></g></svg>